<svg version="1.0" xmlns="http://www.w3.org/2000/svg"  width="333.000000pt" height="324.000000pt" viewBox="0 0 1110.000000 1062.000000"  preserveAspectRatio="xMidYMid meet"> <g transform="translate(0.000000,1062.000000) scale(0.100000,-0.100000)" fill="#000000" stroke="none"> <path d="M447 10183 c-11 -10 -8 -1041 2 -1048 5 -3 704 -5 1553 -5 1261 0 1547 -2 1562 -13 10 -7 29 -44 42 -82 13 -38 29 -74 34 -79 6 -6 10 -22 10 -36 0 -14 7 -35 15 -46 8 -10 15 -28 15 -38 0 -22 38 -151 51 -178 5 -10 9 -35 9 -56 0 -20 6 -47 14 -58 8 -11 17 -49 20 -84 2 -36 9 -83 15 -105 34 -132 53 -651 31 -845 -22 -192 -44 -326 -68 -415 -6 -22 -21 -78 -33 -125 -12 -47 -30 -102 -40 -123 -11 -22 -17 -42 -14 -47 3 -4 -9 -34 -25 -66 -16 -33 -30 -66 -30 -75 0 -24 -97 -213 -120 -234 -11 -10 -20 -25 -20 -32 0 -8 -16 -33 -35 -56 -19 -23 -50 -60 -68 -83 -30 -38 -66 -71 -178 -166 -24 -21 -51 -38 -60 -38 -9 0 -95 77 -190 171 -96 94 -196 186 -224 204 -27 18 -66 49 -84 69 -19 20 -40 36 -47 36 -7 0 -25 11 -41 23 -29 25 -48 36 -130 75 -26 13 -55 28 -63 33 -32 19 -86 40 -130 50 -25 6 -54 15 -65 20 -61 27 -278 43 -380 29 -44 -6 -104 -15 -133 -19 -28 -4 -57 -12 -64 -19 -7 -7 -22 -12 -35 -12 -33 0 -97 -35 -183 -99 -79 -59 -110 -87 -110 -97 0 -4 -16 -26 -35 -50 -19 -23 -35 -49 -35 -57 0 -8 -7 -20 -15 -27 -8 -7 -15 -20 -15 -29 0 -9 -7 -25 -15 -35 -8 -11 -15 -32 -15 -46 0 -14 -4 -30 -9 -35 -27 -29 -50 -363 -29 -423 4 -13 12 -64 17 -115 10 -92 20 -143 47 -227 8 -25 14 -54 14 -66 0 -11 7 -29 15 -40 8 -10 15 -31 15 -45 0 -14 7 -34 15 -45 8 -10 15 -31 15 -45 0 -14 7 -34 15 -45 8 -10 15 -29 15 -41 0 -12 20 -62 45 -110 25 -48 45 -93 45 -99 0 -13 8 -32 53 -119 14 -27 43 -84 63 -125 21 -41 51 -94 66 -116 15 -23 28 -46 28 -50 0 -5 20 -39 43 -75 24 -36 46 -73 50 -82 3 -9 38 -64 77 -121 38 -57 70 -107 70 -111 0 -4 12 -24 28 -44 15 -20 32 -44 37 -53 22 -37 203 -298 250 -360 59 -79 98 -133 142 -195 17 -25 42 -57 56 -72 13 -14 30 -36 36 -48 6 -12 34 -49 61 -82 28 -33 50 -65 50 -71 0 -5 3 -10 8 -10 4 0 32 -33 62 -72 52 -69 118 -152 195 -245 19 -23 35 -44 35 -47 0 -3 10 -16 23 -29 12 -14 33 -37 46 -53 97 -116 136 -163 155 -187 11 -16 29 -36 39 -45 10 -9 37 -42 60 -72 23 -30 66 -80 95 -111 29 -31 69 -78 90 -104 20 -27 61 -73 90 -104 30 -31 81 -87 114 -126 72 -85 80 -94 247 -275 73 -80 160 -174 193 -210 133 -145 834 -858 844 -859 6 -1 51 36 99 81 48 45 108 98 133 118 26 19 58 47 72 61 14 14 70 65 125 113 55 48 136 120 180 160 44 40 106 95 138 122 31 27 81 70 110 96 l52 48 -112 107 c-61 60 -135 128 -164 153 -30 25 -119 108 -199 185 -157 152 -203 196 -505 483 -236 224 -868 860 -910 916 -17 22 -84 96 -151 165 -149 156 -204 216 -204 225 0 4 -11 17 -23 29 -13 12 -56 60 -96 107 -170 199 -250 293 -274 320 -34 38 -87 107 -87 113 0 3 -14 21 -31 39 -17 18 -44 52 -60 76 -17 23 -41 54 -54 68 -32 34 -65 91 -58 98 4 3 21 6 38 6 18 0 38 7 45 15 7 8 28 18 48 21 20 4 56 17 79 30 24 12 69 31 101 42 31 11 105 45 164 75 59 29 128 62 154 72 26 10 63 28 82 41 19 13 58 35 88 49 29 14 113 65 187 114 73 49 140 91 148 93 8 1 80 -30 160 -70 81 -39 153 -72 161 -72 9 0 42 -13 74 -30 32 -16 69 -30 81 -30 12 0 25 -4 28 -10 3 -5 14 -10 24 -10 10 0 24 -7 31 -15 7 -8 22 -15 34 -15 11 0 34 -7 50 -15 15 -8 35 -15 43 -15 8 0 29 -6 46 -14 18 -8 70 -24 117 -36 47 -12 92 -26 101 -30 9 -5 38 -12 65 -15 27 -4 54 -11 59 -15 6 -5 33 -11 60 -15 28 -4 55 -10 60 -14 13 -8 114 -29 200 -41 39 -5 90 -14 115 -20 25 -5 95 -16 155 -25 294 -41 293 -41 677 -65 166 -10 251 -10 430 -1 123 7 298 16 389 21 91 4 174 12 185 17 10 6 64 13 119 16 55 3 113 10 128 16 16 6 65 11 110 11 53 0 90 5 102 14 11 7 49 16 85 20 35 3 69 11 74 16 6 6 33 10 60 10 28 0 64 7 80 15 15 8 37 15 47 15 18 0 19 -47 21 -1917 l3 -1918 594 -3 c327 -1 598 1 603 6 4 4 8 1858 8 4118 0 3983 1 4111 18 4128 17 15 82 16 767 16 412 0 752 3 757 8 4 4 7 242 6 528 l-3 519 -5166 3 c-2841 1 -5169 -1 -5172 -5z m7578 -2713 l0 -1655 -40 -10 c-22 -5 -44 -13 -50 -16 -5 -4 -34 -10 -62 -14 -29 -4 -55 -10 -58 -15 -3 -4 -29 -11 -60 -15 -30 -3 -57 -11 -60 -16 -4 -5 -23 -9 -43 -9 -20 0 -57 -6 -82 -14 -47 -15 -149 -32 -282 -46 -43 -4 -99 -13 -125 -19 -214 -47 -999 -53 -1368 -10 -44 5 -89 9 -100 10 -17 1 -121 15 -240 32 -28 5 -129 24 -235 46 -25 5 -56 14 -70 19 -14 5 -49 13 -78 17 -30 4 -66 13 -80 21 -15 8 -37 14 -49 14 -12 0 -24 4 -27 9 -3 4 -28 11 -55 15 -27 4 -62 13 -78 21 -15 8 -35 15 -44 15 -9 0 -30 7 -45 15 -16 8 -36 15 -45 15 -28 0 -69 25 -69 42 0 9 10 25 23 35 12 10 51 74 85 143 34 69 66 132 71 140 22 37 71 149 71 162 0 8 9 32 19 54 11 23 25 63 31 90 7 27 18 63 26 81 8 17 14 40 14 50 0 10 4 23 9 29 5 5 14 38 21 74 6 36 18 97 26 135 50 246 70 593 56 984 -6 152 -15 289 -21 304 -6 16 -11 59 -11 96 0 37 -6 91 -14 121 -7 30 -16 82 -20 114 -4 33 -10 64 -15 70 -5 6 -12 34 -16 61 -4 28 -11 55 -15 60 -5 6 -10 32 -13 58 -3 26 -9 53 -15 60 -5 7 -13 33 -16 60 -4 26 -14 59 -22 75 -7 15 -14 34 -14 43 0 9 -7 30 -16 48 -33 66 -157 61 1605 59 l1596 -3 0 -1655z"/> </g> </svg>