<svg version="1.0" xmlns="http://www.w3.org/2000/svg"  width="333.000000pt" height="324.000000pt" viewBox="0 0 1110.000000 1062.000000"  preserveAspectRatio="xMidYMid meet"> <g transform="translate(0.000000,1062.000000) scale(0.100000,-0.100000)" fill="#000000" stroke="none"> <path d="M0 5310 l0 -5310 5550 0 5550 0 0 5310 0 5310 -5550 0 -5550 0 0 -5310z m10788 4356 c1 -286 -2 -524 -6 -528 -5 -5 -345 -8 -757 -8 -685 0 -750 -1 -767 -16 -17 -17 -18 -145 -18 -4128 0 -2260 -4 -4114 -8 -4118 -5 -5 -276 -7 -603 -6 l-594 3 -3 1918 c-2 1870 -3 1917 -21 1917 -10 0 -32 -7 -47 -15 -16 -8 -52 -15 -80 -15 -27 0 -54 -4 -60 -10 -5 -5 -39 -13 -74 -16 -36 -4 -74 -13 -85 -20 -12 -9 -49 -14 -102 -14 -45 0 -94 -5 -110 -11 -15 -6 -73 -13 -128 -16 -55 -3 -109 -10 -119 -16 -11 -5 -94 -13 -185 -17 -91 -5 -266 -14 -389 -21 -179 -9 -264 -9 -430 1 -384 24 -383 24 -677 65 -60 9 -130 20 -155 25 -25 6 -76 15 -115 20 -86 12 -187 33 -200 41 -5 4 -32 10 -60 14 -27 4 -54 10 -60 15 -5 4 -32 11 -59 15 -27 3 -56 10 -65 15 -9 4 -54 18 -101 30 -47 12 -99 28 -117 36 -17 8 -38 14 -46 14 -8 0 -28 7 -43 15 -16 8 -39 15 -50 15 -12 0 -27 7 -34 15 -7 8 -21 15 -31 15 -10 0 -21 5 -24 10 -3 6 -16 10 -28 10 -12 0 -49 14 -81 30 -32 17 -65 30 -74 30 -8 0 -80 33 -161 72 -80 40 -152 71 -160 70 -8 -2 -75 -44 -148 -93 -74 -49 -158 -100 -187 -114 -30 -14 -69 -36 -88 -49 -19 -13 -56 -31 -82 -41 -26 -10 -95 -43 -154 -72 -59 -30 -133 -64 -164 -75 -32 -11 -77 -30 -101 -42 -23 -13 -59 -26 -79 -30 -20 -3 -41 -13 -48 -21 -7 -8 -27 -15 -45 -15 -17 0 -34 -3 -38 -6 -7 -7 26 -64 58 -98 13 -14 37 -45 54 -68 16 -24 43 -58 60 -76 17 -18 31 -36 31 -39 0 -6 53 -75 87 -113 24 -27 104 -121 274 -320 40 -47 83 -95 96 -107 12 -12 23 -25 23 -29 0 -9 55 -69 204 -225 67 -69 134 -143 151 -165 42 -56 674 -692 910 -916 302 -287 348 -331 505 -483 80 -77 169 -160 199 -185 29 -25 103 -93 164 -153 l112 -107 -52 -48 c-29 -26 -79 -69 -110 -96 -32 -27 -94 -82 -138 -122 -44 -40 -125 -112 -180 -160 -55 -48 -111 -99 -125 -113 -14 -14 -46 -42 -72 -61 -25 -20 -85 -73 -133 -118 -48 -45 -93 -82 -99 -81 -10 1 -711 714 -844 859 -33 36 -120 130 -193 210 -167 181 -175 190 -247 275 -33 39 -84 95 -114 126 -29 31 -70 77 -90 104 -21 26 -61 73 -90 104 -29 31 -72 81 -95 111 -23 30 -50 63 -60 72 -10 9 -28 29 -39 45 -19 24 -58 71 -155 187 -13 16 -34 39 -46 53 -13 13 -23 26 -23 29 0 3 -16 24 -35 47 -77 93 -143 176 -195 245 -30 39 -58 72 -62 72 -5 0 -8 5 -8 10 0 6 -22 38 -50 71 -27 33 -55 70 -61 82 -6 12 -23 34 -36 48 -14 15 -39 47 -56 72 -44 62 -83 116 -142 195 -47 62 -228 323 -250 360 -5 9 -22 33 -37 53 -16 20 -28 40 -28 44 0 4 -32 54 -70 111 -39 57 -74 112 -77 121 -4 9 -26 46 -50 82 -23 36 -43 70 -43 75 0 4 -13 27 -28 50 -15 22 -45 75 -66 116 -20 41 -49 98 -63 125 -45 87 -53 106 -53 119 0 6 -20 51 -45 99 -25 48 -45 98 -45 110 0 12 -7 31 -15 41 -8 11 -15 31 -15 45 0 14 -7 35 -15 45 -8 11 -15 31 -15 45 0 14 -7 35 -15 45 -8 11 -15 29 -15 40 0 12 -6 41 -14 66 -27 84 -37 135 -47 227 -5 51 -13 102 -17 115 -21 60 2 394 29 423 5 5 9 21 9 35 0 14 7 35 15 46 8 10 15 26 15 35 0 9 7 22 15 29 8 7 15 19 15 27 0 8 16 34 35 57 19 24 35 46 35 50 0 10 31 38 110 97 86 64 150 99 183 99 13 0 28 5 35 12 7 7 36 15 64 19 29 4 89 13 133 19 102 14 319 -2 380 -29 11 -5 40 -14 65 -20 44 -10 98 -31 130 -50 8 -5 37 -20 63 -33 82 -39 101 -50 130 -75 16 -12 34 -23 41 -23 7 0 28 -16 47 -36 18 -20 57 -51 84 -69 28 -18 128 -110 224 -204 95 -94 181 -171 190 -171 9 0 36 17 60 38 112 95 148 128 178 166 18 23 49 60 68 83 19 23 35 48 35 56 0 7 9 22 20 32 23 21 120 210 120 234 0 9 14 42 30 75 16 32 28 62 25 66 -3 5 3 25 14 47 10 21 28 76 40 123 12 47 27 103 33 125 24 89 46 223 68 415 22 194 3 713 -31 845 -6 22 -13 69 -15 105 -3 35 -12 73 -20 84 -8 11 -14 38 -14 58 0 21 -4 46 -9 56 -13 27 -51 156 -51 178 0 10 -7 28 -15 38 -8 11 -15 32 -15 46 0 14 -4 30 -10 36 -5 5 -21 41 -34 79 -13 38 -32 75 -42 82 -15 11 -301 13 -1562 13 -849 0 -1548 2 -1553 5 -10 7 -13 1038 -2 1048 3 4 2331 6 5172 5 l5166 -3 3 -519z"/> <path d="M4820 9115 c-9 -11 -9 -21 4 -46 9 -18 16 -39 16 -48 0 -9 7 -28 14 -43 8 -16 18 -49 22 -75 3 -27 11 -53 16 -60 6 -7 12 -34 15 -60 3 -26 8 -52 13 -58 4 -5 11 -32 15 -60 4 -27 11 -55 16 -61 5 -6 11 -37 15 -70 4 -32 13 -84 20 -114 8 -30 14 -84 14 -121 0 -37 5 -80 11 -96 6 -15 15 -152 21 -304 14 -391 -6 -738 -56 -984 -8 -38 -20 -99 -26 -135 -7 -36 -16 -69 -21 -74 -5 -6 -9 -19 -9 -29 0 -10 -6 -33 -14 -50 -8 -18 -19 -54 -26 -81 -6 -27 -20 -67 -31 -90 -10 -22 -19 -46 -19 -54 0 -13 -49 -125 -71 -162 -5 -8 -37 -71 -71 -140 -34 -69 -73 -133 -85 -143 -13 -10 -23 -26 -23 -35 0 -17 41 -42 69 -42 9 0 29 -7 45 -15 15 -8 36 -15 45 -15 9 0 29 -7 44 -15 16 -8 51 -17 78 -21 27 -4 52 -11 55 -15 3 -5 15 -9 27 -9 12 0 34 -6 49 -14 14 -8 50 -17 80 -21 29 -4 64 -12 78 -17 14 -5 45 -14 70 -19 106 -22 207 -41 235 -46 119 -17 223 -31 240 -32 11 -1 56 -5 100 -10 369 -43 1154 -37 1368 10 26 6 82 15 125 19 133 14 235 31 282 46 25 8 62 14 82 14 20 0 39 4 43 9 3 5 30 13 60 16 31 4 57 11 60 15 3 5 29 11 58 15 28 4 57 10 62 14 6 3 28 11 50 16 l40 10 0 1655 0 1655 -1596 3 c-1393 2 -1598 0 -1609 -13z"/> </g> </svg>